# xmcd CD database file
#
# Track frame offsets:
#	182
#	20695
#	39745
#	80470
#	107545
#	124195
#	143095
#	154645
#	173470
#	187870
#	218245
#
# Disc length: 3409 seconds
#
# Revision: 0
# Processed by: cddbd v1.4PL0 Copyright (c) Steve Scherf et al.
# Submitted via: CDex 1.50Beta7
#
DISCID=870d4f0b
DTITLE=Muddy Puddles - On The Line
DYEAR=1900
DGENRE=Blues
TTITLE0=Black Girl Blues
TTITLE1=Fishing Blues
TTITLE2=Step It Up and Go Frisco Line
TTITLE3=St James Infermary
TTITLE4=Stones In My Passway
TTITLE5=My Babe
TTITLE6=I'm Through With You
TTITLE7=On The Line
TTITLE8=Don't Muddy Up
TTITLE9=See That My Grave Is Kept Clean
TTITLE10=Fixing To Die
EXTD=
EXTT0=
EXTT1=
EXTT2=
EXTT3=
EXTT4=
EXTT5=
EXTT6=
EXTT7=
EXTT8=
EXTT9=
EXTT10=
PLAYORDER=
